<svg version="1.1" id="Layer_1" xmlns="http://www.w3.org/2000/svg" xmlns:xlink="http://www.w3.org/1999/xlink" x="0px" y="0px"
	 width="100%" viewBox="0 0 819 180" enable-background="new 0 0 819 180" xml:space="preserve">
<path fill="#000000" opacity="1.000000" stroke="none" 
	d="
M596.000000,181.000000 
	C397.333344,181.000000 199.166718,181.000000 1.000053,181.000000 
	C1.000036,121.000031 1.000036,61.000061 1.000018,1.000069 
	C273.999939,1.000046 546.999878,1.000046 819.999878,1.000023 
	C819.999878,60.999928 819.999878,120.999855 819.999939,180.999893 
	C745.500000,181.000000 671.000000,181.000000 596.000000,181.000000 
M653.495850,53.143822 
	C653.682251,53.478966 653.868713,53.814106 654.089233,54.536961 
	C654.089233,54.536961 654.231689,54.899143 654.081360,55.837376 
	C654.105591,61.562382 654.129822,67.287392 653.974670,73.845665 
	C653.668701,75.597282 653.117676,77.346146 653.098022,79.100975 
	C652.998779,87.956879 652.904541,96.816818 653.068909,105.670502 
	C653.212158,113.381516 653.702148,121.086090 654.033569,128.671219 
	C672.771973,128.671219 690.782898,128.671219 708.930786,128.671219 
	C708.930786,125.742088 708.930786,123.210396 708.982239,120.212318 
	C708.996399,119.898743 708.984680,119.586136 709.528992,118.781502 
	C709.348145,116.868980 709.350281,114.913788 708.918152,113.059860 
	C708.657471,111.941978 707.721619,110.981522 706.977478,109.432068 
	C706.924561,109.263481 706.871582,109.094887 706.834351,108.093300 
	C705.522217,107.743652 704.214966,107.114937 702.897034,107.091621 
	C696.449768,106.977600 689.999146,107.059525 683.550598,106.991920 
	C681.849243,106.974091 680.150879,106.670761 677.416199,106.393646 
	C678.965820,103.966537 679.971436,102.391449 681.841614,100.960480 
	C689.812805,100.470390 697.783997,99.980301 705.654175,99.496422 
	C705.654175,92.884232 705.654175,86.666061 705.654175,79.951218 
	C696.217834,79.951218 687.141968,79.951218 677.988770,79.082245 
	C678.091980,77.503822 678.195251,75.925392 678.332092,73.831924 
	C689.000854,73.831924 699.314209,73.831924 709.789612,73.831924 
	C709.789612,69.847313 709.789612,66.410187 709.910278,62.224304 
	C709.885925,61.719803 709.861572,61.215302 709.930603,60.453293 
	C709.930603,60.453293 709.844299,60.193333 710.228699,59.729046 
	C711.764893,63.492886 713.301086,67.256721 714.948364,71.827011 
	C716.978027,78.308418 719.007690,84.789825 721.025757,91.585655 
	C721.025757,91.585655 721.140076,91.878799 721.040405,92.537231 
	C721.358459,93.054604 721.676453,93.571983 722.319763,94.768150 
	C724.588745,102.266449 726.385559,109.949463 729.230835,117.222282 
	C734.236877,130.018143 730.347900,128.983704 745.464050,129.028244 
	C756.682129,129.061310 756.682129,129.051956 760.594177,117.728600 
	C761.755005,114.152672 762.915833,110.576744 764.012512,107.004417 
	C764.012512,107.004417 764.030396,107.066101 764.660950,106.668091 
	C765.459534,103.781418 766.258118,100.894753 767.000916,98.008263 
	C767.000916,98.008263 767.044128,98.043663 767.675720,97.654900 
	C768.480530,94.776207 769.285339,91.897507 770.719299,88.579033 
	C772.478577,82.428314 774.237915,76.277596 776.644043,69.717377 
	C777.455566,66.472420 778.267029,63.227459 779.017212,60.017609 
	C779.017212,60.017609 779.052856,60.078575 779.706116,59.667919 
	C780.176514,57.337399 780.646912,55.006878 781.349976,51.523724 
	C772.625183,52.054737 764.831238,52.529095 756.982849,52.990482 
	C756.982849,52.990482 756.995361,53.045059 756.433411,53.287418 
	C756.362244,53.876095 756.291016,54.464771 756.073181,55.461643 
	C756.073181,55.461643 755.990601,55.887432 755.373352,56.261894 
	C755.297668,57.205013 755.221985,58.148136 755.027588,59.450489 
	C755.027588,59.450489 754.995300,59.827431 754.433594,60.169018 
	C754.338501,60.793552 754.243408,61.418091 753.779114,62.713490 
	C751.091675,71.675140 748.404297,80.636787 745.716858,89.598434 
	C745.317993,89.635147 744.919067,89.671867 744.520203,89.708580 
	C741.622498,79.829926 738.724731,69.951271 735.975098,59.274487 
	C735.334656,57.161377 734.694214,55.048267 733.996460,52.986416 
	C733.996460,52.986416 734.061096,52.948196 733.570312,52.229767 
	C707.757751,52.165604 681.945190,52.093929 656.132629,52.076485 
	C655.417847,52.076004 654.702698,52.657227 653.958862,52.975132 
	C653.958862,52.975132 653.970459,53.005604 653.495850,53.143822 
M314.700195,60.413883 
	C314.153381,59.874313 313.606598,59.334743 312.734711,58.205116 
	C307.802094,56.187443 302.869507,54.169769 297.012756,52.054951 
	C289.032013,52.068447 281.051300,52.081940 272.172516,51.987278 
	C269.762360,52.021610 267.352173,52.055943 264.109039,52.029827 
	C261.791168,52.340614 259.473267,52.651402 257.073303,53.662167 
	C257.088898,54.131248 257.104462,54.600334 257.020020,55.877186 
	C257.041992,57.232216 257.063995,58.587242 256.991425,60.872169 
	C257.032349,64.918610 257.073273,68.965057 257.040405,73.944824 
	C257.042145,90.093178 257.036835,106.241547 257.049072,122.389893 
	C257.053955,128.826248 257.185455,128.932343 264.831482,128.926941 
	C266.573944,128.923035 268.316406,128.919128 270.986206,128.974564 
	C276.775726,128.988586 282.568573,129.126572 288.353516,128.970688 
	C291.890381,128.875381 295.415100,128.328644 299.457733,127.902473 
	C299.629089,127.878410 299.800415,127.854347 300.768066,127.974709 
	C303.201263,127.335236 305.634430,126.695763 308.759827,125.948685 
	C315.749298,122.773911 319.133362,117.045364 319.937927,109.690964 
	C320.918976,100.722969 318.919373,93.009735 310.512146,89.184425 
	C312.787933,85.571228 314.854279,82.290535 317.112946,78.193390 
	C319.036499,72.096657 318.605377,66.313721 314.700195,60.413883 
M442.732697,54.249725 
	C441.238220,53.493462 439.764801,52.141972 438.245453,52.088173 
	C432.840942,51.896805 427.420776,52.147350 421.337738,52.193233 
	C420.650482,53.144924 419.963257,54.096619 419.331177,55.714470 
	C419.325775,56.158070 419.320343,56.601665 418.645599,57.361736 
	C413.387451,71.554138 408.129272,85.746544 402.376831,100.447250 
	C401.884125,102.284409 401.391418,104.121567 400.380707,106.449448 
	C398.312744,112.140404 396.266876,117.839508 394.169098,123.519463 
	C392.760345,127.333916 394.019348,129.103958 398.797852,128.935684 
	C399.509491,128.919525 400.221100,128.903366 401.870178,128.987671 
	C405.836700,129.016357 409.868195,129.473633 413.741364,128.886490 
	C415.579956,128.607758 417.116425,126.336075 419.162842,124.315620 
	C420.132538,120.151581 422.514496,118.385651 426.970459,118.932686 
	C430.406189,119.354469 433.954895,119.193008 437.423584,118.916740 
	C441.023682,118.629997 442.863708,120.052399 443.889343,123.473228 
	C444.461761,125.382378 445.906982,128.455627 447.096466,128.521530 
	C454.562286,128.935120 462.066772,128.650330 470.653137,128.588684 
	C461.746063,104.624931 453.440887,82.280457 445.079773,59.270966 
	C445.020538,58.830444 444.961273,58.389919 444.768219,57.452866 
	C444.520386,57.218323 444.272583,56.983780 444.003937,56.361042 
	C444.003937,56.361042 443.914032,55.982841 443.834717,55.516933 
	C443.680603,55.224846 443.450165,55.017708 442.732697,54.249725 
M582.036377,100.900284 
	C582.024902,105.066727 581.895020,109.237091 582.032776,113.398590 
	C582.194763,118.293961 582.589050,123.181641 583.401428,128.778519 
	C596.741272,128.518265 610.129517,128.825287 623.394958,127.693024 
	C628.099792,127.291443 632.505493,123.386154 637.661255,120.796425 
	C640.374634,116.596359 644.830200,112.637672 645.452271,108.147873 
	C646.915833,97.584244 646.824707,86.764664 646.732056,76.054092 
	C646.708496,73.332253 644.325867,70.630814 642.756714,67.327911 
	C641.780579,65.929626 640.804443,64.531342 639.931335,62.407070 
	C635.127319,55.243187 627.588684,52.683449 619.778503,52.167271 
	C608.861145,51.445732 597.857300,52.090660 586.891663,52.003590 
	C583.625610,51.977657 581.860229,52.938534 582.046509,56.521114 
	C582.227356,59.998920 582.140198,63.490665 582.045410,67.913368 
	C582.091370,78.598648 582.137268,89.283936 582.036377,100.900284 
M494.612091,127.469444 
	C494.686310,120.974655 494.760559,114.479874 494.933228,107.118279 
	C495.055420,104.435196 495.177582,101.752113 495.299744,99.069031 
	C497.841461,101.678398 499.339752,104.387589 500.656952,107.182137 
	C502.197815,110.451279 503.794800,113.019409 508.207489,113.130760 
	C512.939392,113.250175 516.130981,111.870567 518.144775,107.536644 
	C519.546936,104.519135 521.276306,101.653694 523.471191,97.586914 
	C523.893311,100.362724 524.090393,101.658882 524.124634,103.885315 
	C524.134277,109.603539 524.143921,115.321754 524.062012,121.859512 
	C524.374634,123.908340 524.687195,125.957169 525.676636,128.490082 
	C531.975464,128.637405 538.275024,128.882370 544.572449,128.836975 
	C545.634644,128.829315 546.687805,127.569099 547.878418,125.972458 
	C547.912476,102.835724 547.895020,79.698669 548.035217,56.562580 
	C548.056641,53.021378 546.654663,51.851574 543.307129,51.966339 
	C538.484680,52.131668 533.643982,52.234509 528.829346,51.996155 
	C525.508606,51.831760 523.867798,53.157845 522.424744,56.083733 
	C518.497314,64.046799 514.174866,71.815048 509.588684,80.452095 
	C508.387024,78.386818 507.599396,77.187592 506.962891,75.912903 
	C503.925690,69.830559 500.891174,63.746284 497.932678,57.625484 
	C496.050720,53.731869 493.584564,51.370583 488.714905,51.968327 
	C484.615723,52.471500 480.344849,52.497452 476.259125,51.937843 
	C471.914032,51.342701 471.129517,53.348473 471.138367,56.866013 
	C471.195679,79.650291 471.190735,102.434792 471.314972,125.218628 
	C471.319977,126.137070 472.417358,127.049553 473.639984,128.512146 
	C480.441711,128.379303 487.243408,128.246445 494.612091,127.469444 
M390.618378,104.823792 
	C390.719269,96.902977 390.820190,88.982162 391.020905,80.120872 
	C391.028534,72.199280 391.140991,64.275108 390.946625,56.358471 
	C390.911896,54.942764 389.607910,53.558216 387.971771,52.055832 
	C382.812286,52.047878 377.647766,52.174416 372.495117,51.983055 
	C369.248383,51.862469 368.023529,53.147408 368.078339,56.324390 
	C368.181702,62.314106 368.005096,68.308525 368.098267,74.298592 
	C368.150970,77.685196 366.731110,79.083832 363.324188,79.078468 
	C360.204803,79.073563 357.063416,79.876205 353.974976,79.671318 
	C352.688843,79.585991 350.513855,77.869408 350.452026,76.796097 
	C350.048065,69.786072 350.060486,62.749115 350.050690,55.720798 
	C350.046844,52.941677 348.830627,51.895847 346.105225,51.970921 
	C341.448029,52.099216 336.770020,52.264324 332.129486,51.966518 
	C328.071777,51.706112 327.067871,53.367203 327.086884,57.157013 
	C327.195557,78.794312 327.097656,100.432648 327.070618,122.070633 
	C327.068176,124.046844 327.070312,126.023048 327.070312,128.862289 
	C333.970734,128.862289 340.428253,129.036758 346.858459,128.695862 
	C347.970215,128.636917 349.712311,126.482147 349.871765,125.141815 
	C350.301392,121.530495 350.048584,117.836121 350.039276,114.174789 
	C350.004852,100.639267 349.999237,100.793251 363.423828,100.921585 
	C367.367432,100.959282 368.178650,102.506447 368.092194,105.987930 
	C367.927063,112.637039 368.110046,119.294785 368.202332,126.737297 
	C368.961334,127.451340 369.701569,128.760071 370.482300,128.784729 
	C376.366241,128.970505 382.268799,129.084122 388.137268,128.739349 
	C389.121582,128.681519 389.969177,126.296593 390.931183,124.054024 
	C390.637756,117.881752 390.344299,111.709480 390.618378,104.823792 
M575.837708,128.709229 
	C576.165710,122.397087 576.576416,116.086304 576.681030,109.770454 
	C576.690430,109.202171 574.740723,108.136215 573.670166,108.094742 
	C568.694519,107.902000 563.689575,107.750366 558.738281,108.137451 
	C557.445984,108.238480 555.411133,110.228279 555.267029,111.523087 
	C554.810669,115.624123 555.087402,119.806747 555.067627,124.602882 
	C555.300415,127.755020 556.804688,129.220856 560.149170,129.054611 
	C565.105469,128.808273 570.078125,128.891083 575.837708,128.709229 
M88.840553,125.984444 
	C100.336945,122.202408 103.811119,111.668770 102.743103,101.611061 
	C101.568382,90.548325 95.559898,84.561562 84.655891,81.988327 
	C80.641716,81.041023 76.559608,80.288727 72.659927,78.992035 
	C70.959396,78.426582 69.639885,76.715233 68.147339,75.524292 
	C70.047661,74.717201 72.067223,73.035660 73.824791,73.275337 
	C78.202583,73.872322 82.413322,75.670128 86.789948,76.311279 
	C88.667313,76.586296 91.461617,75.781708 92.662910,74.425568 
	C95.250473,71.504486 96.921333,67.794357 99.259850,64.622818 
	C101.333908,61.809910 100.954826,60.112019 97.941269,58.295719 
	C86.127953,51.175720 73.550430,48.961613 60.388115,53.117176 
	C44.636478,58.090237 38.375645,76.290840 46.493515,89.351021 
	C48.919983,93.254768 54.208851,95.845688 58.712418,97.864273 
	C63.465305,99.994614 68.892860,100.576271 73.922371,102.162148 
	C75.250351,102.580879 76.197281,104.208054 77.319191,105.280319 
	C76.300072,106.263161 75.434761,107.593399 74.218842,108.131706 
	C72.988258,108.676498 71.272964,108.869240 70.009445,108.465958 
	C65.012299,106.870979 60.061615,105.100273 55.191483,103.150475 
	C52.827938,102.204208 51.023869,101.586281 49.214661,104.197182 
	C46.393074,108.269051 43.132183,112.036728 40.316010,116.111977 
	C39.711708,116.986458 39.748478,119.491806 40.273655,119.770828 
	C44.439224,121.984077 48.794308,123.840652 53.570492,126.383224 
	C62.362041,130.753906 71.693275,128.878387 80.841316,128.531525 
	C83.295296,128.438492 85.695518,126.927208 88.840553,125.984444 
M182.453796,54.309086 
	C182.631516,55.522633 182.809250,56.736179 182.302414,58.473515 
	C182.221649,72.597260 182.126907,86.720978 182.100494,100.844826 
	C182.099136,101.567574 182.684250,102.291428 183.021301,103.861259 
	C183.266083,113.430611 187.578598,120.461838 196.028290,125.027557 
	C203.517319,129.074173 211.583115,129.199432 219.771027,128.912659 
	C233.544617,128.430328 244.181458,121.301834 245.619736,107.702148 
	C247.480087,90.111465 246.624878,72.228752 246.712372,54.470654 
	C246.716461,53.638306 244.551010,52.134846 243.337906,52.072433 
	C238.358826,51.816269 233.353928,52.115891 228.365158,51.975574 
	C225.066559,51.882801 223.972855,53.374306 224.033585,56.466694 
	C224.134903,61.624344 224.147308,66.788742 224.006195,71.945076 
	C223.743103,81.559364 223.619736,91.193893 222.790573,100.763878 
	C222.601028,102.951431 220.192886,105.946068 218.093719,106.782921 
	C211.597855,109.372528 207.190552,105.845604 207.009003,98.783394 
	C206.634048,84.197685 206.179550,69.614021 205.770187,54.213753 
	C203.386780,51.038010 186.279144,50.841557 182.453796,54.309086 
M173.988312,96.021622 
	C173.936172,89.718292 173.884033,83.414955 173.964157,76.168320 
	C173.984619,69.675949 173.906982,63.181160 174.066650,56.692215 
	C174.147446,53.408031 173.221939,51.759304 169.561111,51.942265 
	C164.578766,52.191280 159.570099,52.156395 154.582520,51.974392 
	C151.164124,51.849655 149.825958,53.068348 149.934921,56.575981 
	C150.131241,62.895844 150.108261,69.232292 149.854065,75.548820 
	C149.797516,76.954163 148.609726,79.279984 147.585083,79.497581 
	C144.619720,80.127327 141.472229,79.899727 138.396194,80.007988 
	C134.771072,80.135582 132.842926,78.777412 132.975540,74.756508 
	C133.183945,68.436981 133.222092,62.095943 132.888794,55.787453 
	C132.819687,54.479389 130.878784,52.270031 129.687836,52.191803 
	C124.053123,51.821674 118.378777,52.005852 112.719696,52.079716 
	C110.424271,52.109676 109.558083,52.825417 109.563980,55.708569 
	C109.610573,78.471581 109.301643,101.235321 109.100082,124.780952 
	C110.217926,126.146095 111.319809,128.669418 112.456245,128.685089 
	C118.967552,128.774826 125.487068,128.268982 132.625824,127.394753 
	C132.760666,122.769852 132.919434,118.145500 133.025970,113.519951 
	C133.370575,98.560371 130.199036,101.383751 145.993698,100.961243 
	C148.992523,100.881035 150.102142,102.046440 150.057724,105.041779 
	C149.949585,112.334831 150.071472,119.631302 150.457703,127.617928 
	C157.324890,128.017975 164.192062,128.418015 171.767258,128.543381 
	C172.527740,127.262672 173.926346,125.991890 173.946457,124.699661 
	C174.090302,115.451607 173.953552,106.199173 173.988312,96.021622 
z"/>
<path fill="#4A494A" opacity="1.000000" stroke="none" 
	d="
M524.287537,102.955040 
	C524.090393,101.658882 523.893311,100.362724 523.471191,97.586914 
	C521.276306,101.653694 519.546936,104.519135 518.144775,107.536644 
	C516.130981,111.870567 512.939392,113.250175 508.207489,113.130760 
	C503.794800,113.019409 502.197815,110.451279 500.656952,107.182137 
	C499.339752,104.387589 497.841461,101.678398 495.299744,99.069031 
	C495.177582,101.752113 495.055420,104.435196 494.574554,107.467415 
	C493.099915,106.766998 491.983978,105.717453 490.577240,104.394432 
	C490.038910,111.768089 489.519379,118.884003 488.539612,126.000992 
	C483.054840,126.656319 478.030304,127.310570 473.005768,127.964813 
	C472.417358,127.049553 471.319977,126.137070 471.314972,125.218628 
	C471.190735,102.434792 471.195679,79.650291 471.138367,56.866013 
	C471.129517,53.348473 471.914032,51.342701 476.259125,51.937843 
	C480.344849,52.497452 484.615723,52.471500 488.714905,51.968327 
	C493.584564,51.370583 496.050720,53.731869 497.932678,57.625484 
	C500.891174,63.746284 503.925690,69.830559 506.962891,75.912903 
	C507.599396,77.187592 508.387024,78.386818 509.588684,80.452095 
	C514.174866,71.815048 518.497314,64.046799 522.424744,56.083733 
	C523.867798,53.157845 525.508606,51.831760 528.829346,51.996155 
	C533.643982,52.234509 538.484680,52.131668 543.307129,51.966339 
	C546.654663,51.851574 548.056641,53.021378 548.035217,56.562580 
	C547.895020,79.698669 547.912476,102.835724 547.423767,126.342484 
	C540.894653,126.510330 534.820129,126.196861 528.745667,126.197746 
	C527.497009,126.197929 526.248413,127.372650 524.999817,128.005981 
	C524.687195,125.957169 524.374634,123.908340 524.330627,121.578018 
	C525.274719,121.883286 525.950195,122.470039 526.625671,123.056793 
	C527.064026,122.965012 527.502380,122.873230 527.940735,122.781441 
	C527.532898,116.922096 527.213257,111.053741 526.616821,105.213654 
	C526.532715,104.390083 525.097412,103.704498 524.287537,102.955040 
M490.475372,101.506447 
	C490.475372,101.506447 490.514008,101.494240 490.475372,101.506447 
z"/>
<path fill="#494A4A" opacity="1.000000" stroke="none" 
	d="
M150.100708,126.926392 
	C150.071472,119.631302 149.949585,112.334831 150.057724,105.041779 
	C150.102142,102.046440 148.992523,100.881035 145.993698,100.961243 
	C130.199036,101.383751 133.370575,98.560371 133.025970,113.519951 
	C132.919434,118.145500 132.760666,122.769852 132.089935,127.376358 
	C129.368393,126.908516 127.199097,126.342407 124.993797,126.032898 
	C119.705566,125.290726 114.400406,124.669106 109.102081,123.998833 
	C109.301643,101.235321 109.610573,78.471581 109.563980,55.708569 
	C109.558083,52.825417 110.424271,52.109676 112.719696,52.079716 
	C118.378777,52.005852 124.053123,51.821674 129.687836,52.191803 
	C130.878784,52.270031 132.819687,54.479389 132.888794,55.787453 
	C133.222092,62.095943 133.183945,68.436981 132.975540,74.756508 
	C132.842926,78.777412 134.771072,80.135582 138.396194,80.007988 
	C141.472229,79.899727 144.619720,80.127327 147.585083,79.497581 
	C148.609726,79.279984 149.797516,76.954163 149.854065,75.548820 
	C150.108261,69.232292 150.131241,62.895844 149.934921,56.575981 
	C149.825958,53.068348 151.164124,51.849655 154.582520,51.974392 
	C159.570099,52.156395 164.578766,52.191280 169.561111,51.942265 
	C173.221939,51.759304 174.147446,53.408031 174.066650,56.692215 
	C173.906982,63.181160 173.984619,69.675949 173.759995,77.016449 
	C173.672546,84.225761 173.789246,90.586945 173.905975,96.948135 
	C173.953552,106.199173 174.090302,115.451607 173.946457,124.699661 
	C173.926346,125.991890 172.527740,127.262672 171.337952,128.402222 
	C164.184494,124.513596 157.130676,125.905769 150.100708,126.926392 
z"/>
<path fill="#4A4A4A" opacity="1.000000" stroke="none" 
	d="
M263.963684,128.841888 
	C257.185455,128.932343 257.053955,128.826248 257.049072,122.389893 
	C257.036835,106.241547 257.042145,90.093178 257.359924,73.233017 
	C258.123108,68.482033 258.919708,64.442055 258.910645,60.403893 
	C258.901672,56.398712 261.035675,55.120712 264.341797,54.937527 
	C267.317535,54.772648 270.316010,55.064793 273.299103,54.975685 
	C281.226044,54.738907 289.150085,54.405128 297.412628,54.223595 
	C300.267822,55.474430 302.776245,56.633148 305.306213,57.742737 
	C307.854156,58.860229 310.423462,59.928909 313.077820,61.417877 
	C313.675232,66.535248 314.062134,71.271179 314.767334,75.959244 
	C314.932770,77.059189 316.174225,77.997284 316.920654,79.009842 
	C314.854279,82.290535 312.787933,85.571228 310.512146,89.184425 
	C318.919373,93.009735 320.918976,100.722969 319.937927,109.690964 
	C319.133362,117.045364 315.749298,122.773911 308.089325,125.918243 
	C304.936462,126.535294 302.454132,127.182793 299.971771,127.830284 
	C299.800415,127.854347 299.629089,127.878410 298.985626,127.953278 
	C298.513519,128.004074 298.081665,128.022629 297.808777,127.745636 
	C296.816345,127.077042 296.101379,126.354111 295.376495,126.344009 
	C285.947632,126.212654 276.515961,126.096413 267.089325,126.246796 
	C266.033905,126.263634 265.004913,127.936821 263.963684,128.841888 
M291.727783,73.844131 
	C291.501678,73.809921 291.276489,73.821266 290.358032,73.968422 
	C289.893921,73.932304 289.429840,73.896194 288.541656,73.300476 
	C285.994965,73.249313 283.448273,73.198151 280.368988,73.715012 
	C279.401215,82.153114 279.973206,82.700142 288.228546,81.250633 
	C288.714020,81.165390 289.242432,81.223068 289.692719,81.056824 
	C291.401917,80.425812 293.087219,79.730019 294.781433,79.058456 
	C293.838196,77.334877 292.894958,75.611298 291.727783,73.844131 
M280.260773,108.576408 
	C283.503418,113.082291 287.937927,111.073700 291.524689,109.881668 
	C294.518127,108.886826 297.537537,106.478584 299.337067,103.864456 
	C300.725677,101.847260 299.545532,99.185593 295.303802,99.814400 
	C293.885956,99.425362 292.486664,98.939690 291.047272,98.662682 
	C280.290253,96.592461 279.804779,97.009834 280.260773,108.576408 
M262.507568,125.524742 
	C262.507568,125.524742 262.498535,125.489723 262.507568,125.524742 
M289.506195,112.522301 
	C289.506195,112.522301 289.495392,112.486572 289.506195,112.522301 
z"/>
<path fill="#4A4A4A" opacity="1.000000" stroke="none" 
	d="
M368.148560,125.948944 
	C368.110046,119.294785 367.927063,112.637039 368.092194,105.987930 
	C368.178650,102.506447 367.367432,100.959282 363.423828,100.921585 
	C349.999237,100.793251 350.004852,100.639267 350.039276,114.174789 
	C350.048584,117.836121 350.301392,121.530495 349.871765,125.141815 
	C349.712311,126.482147 347.970215,128.636917 346.858459,128.695862 
	C340.428253,129.036758 333.970734,128.862289 327.070312,128.862289 
	C327.070312,126.023048 327.068176,124.046844 327.070618,122.070633 
	C327.097656,100.432648 327.195557,78.794312 327.086884,57.157013 
	C327.067871,53.367203 328.071777,51.706112 332.129486,51.966518 
	C336.770020,52.264324 341.448029,52.099216 346.105225,51.970921 
	C348.830627,51.895847 350.046844,52.941677 350.050690,55.720798 
	C350.060486,62.749115 350.048065,69.786072 350.452026,76.796097 
	C350.513855,77.869408 352.688843,79.585991 353.974976,79.671318 
	C357.063416,79.876205 360.204803,79.073563 363.324188,79.078468 
	C366.731110,79.083832 368.150970,77.685196 368.098267,74.298592 
	C368.005096,68.308525 368.181702,62.314106 368.078339,56.324390 
	C368.023529,53.147408 369.248383,51.862469 372.495117,51.983055 
	C377.647766,52.174416 382.812286,52.047878 388.255066,52.332535 
	C388.696991,56.332027 388.979309,60.054340 388.993683,63.777687 
	C389.072632,84.199364 389.085876,104.621292 388.900757,125.316628 
	C387.624176,125.919937 386.563080,126.549088 385.513855,126.529846 
	C379.723816,126.423599 373.936676,126.159149 368.148560,125.948944 
z"/>
<path fill="#4A494A" opacity="1.000000" stroke="none" 
	d="
M205.757782,55.029510 
	C206.179550,69.614021 206.634048,84.197685 207.009003,98.783394 
	C207.190552,105.845604 211.597855,109.372528 218.093719,106.782921 
	C220.192886,105.946068 222.601028,102.951431 222.790573,100.763878 
	C223.619736,91.193893 223.743103,81.559364 224.006195,71.945076 
	C224.147308,66.788742 224.134903,61.624344 224.033585,56.466694 
	C223.972855,53.374306 225.066559,51.882801 228.365158,51.975574 
	C233.353928,52.115891 238.358826,51.816269 243.337906,52.072433 
	C244.551010,52.134846 246.716461,53.638306 246.712372,54.470654 
	C246.624878,72.228752 247.480087,90.111465 245.619736,107.702148 
	C244.181458,121.301834 233.544617,128.430328 219.771027,128.912659 
	C211.583115,129.199432 203.517319,129.074173 196.028290,125.027557 
	C187.578598,120.461838 183.266083,113.430611 183.000244,103.065445 
	C182.981308,101.524323 182.983429,100.779022 183.167267,99.658936 
	C183.566147,88.493355 183.854095,77.703163 183.949371,66.911278 
	C183.972412,64.302383 183.358841,61.687866 183.025604,58.794369 
	C183.004456,58.325108 182.995712,58.137417 182.986984,57.949726 
	C182.809250,56.736179 182.631516,55.522633 183.077606,54.319160 
	C191.053543,54.562656 198.405655,54.796082 205.757782,55.029510 
z"/>
<path fill="#4A4A4A" opacity="1.000000" stroke="none" 
	d="
M53.091183,125.806763 
	C48.794308,123.840652 44.439224,121.984077 40.273655,119.770828 
	C39.748478,119.491806 39.711708,116.986458 40.316010,116.111977 
	C43.132183,112.036728 46.393074,108.269051 49.214661,104.197182 
	C51.023869,101.586281 52.827938,102.204208 55.191483,103.150475 
	C60.061615,105.100273 65.012299,106.870979 70.009445,108.465958 
	C71.272964,108.869240 72.988258,108.676498 74.218842,108.131706 
	C75.434761,107.593399 76.300072,106.263161 77.319191,105.280319 
	C76.197281,104.208054 75.250351,102.580879 73.922371,102.162148 
	C68.892860,100.576271 63.465305,99.994614 58.712418,97.864273 
	C54.208851,95.845688 48.919983,93.254768 46.493515,89.351021 
	C38.375645,76.290840 44.636478,58.090237 60.388115,53.117176 
	C73.550430,48.961613 86.127953,51.175720 97.941269,58.295719 
	C100.954826,60.112019 101.333908,61.809910 99.259850,64.622818 
	C96.921333,67.794357 95.250473,71.504486 92.662910,74.425568 
	C91.461617,75.781708 88.667313,76.586296 86.789948,76.311279 
	C82.413322,75.670128 78.202583,73.872322 73.824791,73.275337 
	C72.067223,73.035660 70.047661,74.717201 68.147339,75.524292 
	C69.639885,76.715233 70.959396,78.426582 72.659927,78.992035 
	C76.559608,80.288727 80.641716,81.041023 84.655891,81.988327 
	C95.559898,84.561562 101.568382,90.548325 102.743103,101.611061 
	C103.811119,111.668770 100.336945,122.202408 88.162621,125.910294 
	C76.020187,125.826355 64.555687,125.816559 53.091183,125.806763 
z"/>
<path fill="#CD4A33" opacity="1.000000" stroke="none" 
	d="
M639.828369,63.133057 
	C640.804443,64.531342 641.780579,65.929626 642.897217,68.054756 
	C643.418335,77.180565 644.174316,85.585152 644.048889,93.976555 
	C643.963684,99.673676 643.146729,105.486473 641.684082,110.988922 
	C640.804871,114.296547 638.057190,117.107491 635.851562,120.314537 
	C630.487793,122.330650 625.544006,125.143883 620.328247,125.801826 
	C611.308838,126.939590 602.120728,126.740189 592.659119,126.918823 
	C584.060059,124.873886 583.944092,124.872528 584.049255,115.907310 
	C584.126648,109.312180 584.839661,102.716957 584.740967,96.129707 
	C584.663818,90.986259 583.774292,85.855003 583.238770,80.279846 
	C583.235657,75.602936 583.239441,71.364517 583.391479,66.791679 
	C583.881653,65.007835 584.371704,63.575428 584.540466,62.106113 
	C585.382568,54.775711 585.989746,54.112797 593.593689,53.981579 
	C600.553650,53.861473 607.517456,53.903572 614.479065,53.954159 
	C622.616211,54.013290 630.194092,55.467854 635.851501,62.189758 
	C636.556030,63.026886 638.473145,62.843544 639.828369,63.133057 
M619.971924,75.028610 
	C615.200500,70.737808 608.570801,70.658043 605.833435,74.814651 
	C605.833435,74.814651 605.752869,74.825958 605.201416,75.349983 
	C603.658936,82.365395 602.752197,89.363113 605.786682,96.993271 
	C605.763733,98.232689 605.740723,99.472099 605.238831,101.188065 
	C603.509094,107.446793 605.600098,110.006836 611.849854,109.303253 
	C612.837708,109.192047 613.833740,109.129944 614.827637,109.099030 
	C620.817017,108.912704 623.689453,106.381424 623.980530,100.373413 
	C624.301575,93.746780 624.350525,87.099541 624.237122,80.466064 
	C624.216370,79.253540 622.850342,78.064011 621.707520,76.477509 
	C621.224915,76.211723 620.742249,75.945946 619.971924,75.028610 
z"/>
<path fill="#4A494A" opacity="1.000000" stroke="none" 
	d="
M400.898682,105.958717 
	C401.391418,104.121567 401.884125,102.284409 402.993408,100.141312 
	C404.720520,98.765335 406.370514,97.896683 406.856964,96.593651 
	C411.019501,85.443771 414.971191,74.215195 418.992798,63.004898 
	C418.999603,62.999653 419.010010,62.985931 419.299438,62.843407 
	C422.054138,60.691837 422.663574,58.772686 419.314941,57.045265 
	C419.320343,56.601665 419.325775,56.158070 419.597046,55.343361 
	C420.583099,54.668182 421.303223,54.364105 422.429321,54.147263 
	C424.306915,54.468651 425.770935,54.816433 427.251678,54.916813 
	C432.921844,55.301193 439.261963,53.302448 443.228149,59.615437 
	C443.456238,59.978470 444.481476,59.840675 445.135712,59.935970 
	C453.440887,82.280457 461.746063,104.624931 470.653137,128.588684 
	C462.066772,128.650330 454.562286,128.935120 447.096466,128.521530 
	C445.906982,128.455627 444.461761,125.382378 443.889343,123.473228 
	C442.863708,120.052399 441.023682,118.629997 437.423584,118.916740 
	C433.954895,119.193008 430.406189,119.354469 426.970459,118.932686 
	C422.514496,118.385651 420.132538,120.151581 418.522705,124.653526 
	C412.441345,125.068222 406.999023,125.233444 401.559509,125.167381 
	C399.948059,125.147812 398.344543,124.476776 396.737427,124.104263 
	C397.672760,122.127022 398.513306,120.094719 399.607727,118.209839 
	C399.893951,117.716904 400.969421,117.682220 401.771698,117.406364 
	C401.465088,113.385971 401.181885,109.672348 400.898682,105.958717 
M432.408630,88.827072 
	C432.137909,88.286667 431.867188,87.746254 431.109802,86.234306 
	C429.653046,90.714012 428.487152,94.299263 426.932861,99.078918 
	C430.153534,98.732742 432.539886,98.973763 434.282562,98.028389 
	C434.922241,97.681366 434.126007,94.512344 433.817657,92.658386 
	C433.632385,91.544296 433.124603,90.483849 432.408630,88.827072 
z"/>
<path fill="#CD4C34" opacity="1.000000" stroke="none" 
	d="
M708.947144,119.274506 
	C708.984680,119.586136 708.996399,119.898743 708.752991,120.757019 
	C707.235596,125.850342 704.208191,127.238632 699.577393,127.157753 
	C686.677185,126.932480 673.768066,127.225662 660.867615,127.007027 
	C659.221313,126.979118 657.605896,125.127167 655.984253,123.715805 
	C655.659180,121.544235 655.326050,119.777092 654.987976,117.593781 
	C655.006104,115.790581 655.029236,114.403557 655.224243,112.640900 
	C655.606201,110.139320 655.941528,108.017021 656.003479,105.886772 
	C656.214722,98.617790 656.554077,91.341698 656.414124,84.076599 
	C656.291138,77.687210 655.590759,71.308952 655.152466,64.492554 
	C655.179260,61.751747 655.198914,59.444164 655.469727,56.967796 
	C656.452942,55.816048 657.184998,54.833080 658.351807,53.840111 
	C666.185974,53.593594 673.585327,53.357079 681.114014,53.163986 
	C681.243347,53.207413 681.650635,53.219933 681.650635,53.219933 
	C681.650635,53.219933 682.043518,53.107533 682.466187,53.109909 
	C684.580444,53.111271 686.271912,53.110256 688.092896,53.155106 
	C688.222290,53.200970 688.629272,53.221485 688.629272,53.221485 
	C688.629272,53.221485 689.024170,53.116474 689.489380,53.118755 
	C694.947449,53.148052 699.940186,53.175068 705.118408,53.470711 
	C706.515991,55.814007 707.728149,57.888672 708.683105,60.235458 
	C707.224182,64.606796 706.022400,68.706009 704.363892,72.814453 
	C697.961731,72.776047 692.016418,72.728409 685.838135,72.445663 
	C683.402649,72.358154 681.200012,72.505753 678.684509,72.773926 
	C674.721680,74.652489 675.369080,77.223816 677.373718,80.188293 
	C680.479980,80.679428 683.241699,80.969093 686.091919,81.567841 
	C692.656372,85.780113 693.800537,91.283882 690.613525,98.072708 
	C687.111694,98.520508 684.007080,98.864151 680.533325,99.191521 
	C677.033264,99.133698 676.104614,100.892563 676.448425,103.706085 
	C676.807373,106.644440 677.923340,108.816803 681.362488,108.824326 
	C689.847839,108.842880 698.333252,108.890411 706.818604,108.926300 
	C706.871582,109.094887 706.924561,109.263481 707.012695,110.105713 
	C707.681030,113.611069 708.314087,116.442787 708.947144,119.274506 
z"/>
<path fill="#B24D3F" opacity="1.000000" stroke="none" 
	d="
M708.940308,59.963333 
	C707.728149,57.888672 706.515991,55.814007 705.496338,53.431160 
	C715.146240,53.064716 724.603638,53.006454 734.061096,52.948196 
	C734.061096,52.948196 733.996460,52.986416 733.999268,53.343197 
	C734.610352,55.824196 735.218689,57.948410 735.827026,60.072624 
	C738.724731,69.951271 741.622498,79.829926 744.520203,89.708580 
	C744.919067,89.671867 745.317993,89.635147 745.716858,89.598434 
	C748.404297,80.636787 751.091675,71.675140 754.107544,62.116341 
	C754.622437,60.955273 754.808899,60.391350 754.995300,59.827431 
	C754.995300,59.827431 755.027588,59.450489 755.236633,58.969364 
	C755.627319,57.621304 755.808960,56.754368 755.990601,55.887428 
	C755.990601,55.887432 756.073181,55.461643 756.284302,55.021748 
	C756.662109,54.069592 756.828735,53.557331 756.995361,53.045067 
	C756.995361,53.045059 756.982849,52.990482 757.476074,53.003910 
	C762.590393,53.022480 767.211670,53.004734 771.832520,53.038277 
	C778.318115,53.085361 778.666870,53.442120 779.052856,60.078575 
	C779.052856,60.078575 779.017212,60.017609 778.800781,60.264664 
	C777.721985,63.716770 776.859619,66.921829 775.997192,70.126877 
	C774.237915,76.277596 772.478577,82.428314 770.181274,89.039978 
	C768.776855,92.348503 767.910522,95.196083 767.044128,98.043663 
	C767.044128,98.043663 767.000916,98.008263 766.726074,98.190567 
	C765.644226,101.270607 764.837341,104.168358 764.030396,107.066101 
	C764.030396,107.066101 764.012512,107.004417 763.758179,107.147087 
	C762.688965,108.539688 761.874023,109.789612 760.943726,110.725967 
	C761.436340,107.171204 761.725891,103.829987 762.707214,100.706070 
	C767.025391,86.959724 771.491150,73.258835 776.027954,59.582790 
	C777.060486,56.470135 776.078674,55.099327 773.001465,55.005489 
	C770.172180,54.919216 767.330383,55.115841 764.508423,54.947468 
	C760.470703,54.706558 758.599426,56.555553 757.537598,60.419205 
	C754.943054,69.860382 752.033325,79.220467 748.982239,88.525253 
	C748.471985,90.081619 746.616089,91.196793 745.381958,92.515808 
	C744.137024,91.140427 742.245911,89.961113 741.758789,88.355782 
	C739.632568,81.348831 738.000671,74.193932 736.028442,67.137726 
	C732.618225,54.936958 732.092712,54.722065 719.736816,54.899475 
	C715.422546,54.961422 713.500488,56.535606 714.058472,61.291855 
	C714.649292,64.833107 715.255005,67.947716 715.604736,71.055161 
	C715.178223,71.038841 715.007751,71.029701 714.837341,71.020554 
	C713.301086,67.256721 711.764893,63.492886 709.851318,59.926304 
	C709.473877,60.123562 709.103027,60.062634 709.062378,60.037750 
	C709.021729,60.012871 708.940308,59.963329 708.940308,59.963333 
z"/>
<path fill="#464445" opacity="1.000000" stroke="none" 
	d="
M555.080627,123.957817 
	C555.087402,119.806747 554.810669,115.624123 555.267029,111.523087 
	C555.411133,110.228279 557.445984,108.238480 558.738281,108.137451 
	C563.689575,107.750366 568.694519,107.902000 573.670166,108.094742 
	C574.740723,108.136215 576.690430,109.202171 576.681030,109.770454 
	C576.576416,116.086304 576.165710,122.397087 575.388550,128.467941 
	C574.622375,127.477287 574.305298,126.727921 573.981567,125.554413 
	C573.619995,122.172279 573.680725,119.075073 572.753906,116.308693 
	C572.201721,114.660690 570.220032,112.584915 568.664551,112.384895 
	C566.110718,112.056496 562.018555,112.240143 561.057495,113.768692 
	C559.748718,115.850334 560.441711,119.456825 560.939209,122.293243 
	C561.179993,123.666138 562.931213,124.774124 563.595520,126.008194 
	C560.488525,125.328842 557.784546,124.643326 555.080627,123.957817 
z"/>
<path fill="#B66D5F" opacity="1.000000" stroke="none" 
	d="
M655.976196,124.120239 
	C657.605896,125.127167 659.221313,126.979118 660.867615,127.007027 
	C673.768066,127.225662 686.677185,126.932480 699.577393,127.157753 
	C704.208191,127.238632 707.235596,125.850342 708.727295,120.990204 
	C708.930786,123.210396 708.930786,125.742088 708.930786,128.671219 
	C690.782898,128.671219 672.771973,128.671219 654.033569,128.671219 
	C653.702148,121.086090 653.212158,113.381516 653.068909,105.670502 
	C652.904541,96.816818 652.998779,87.956879 653.098022,79.100975 
	C653.117676,77.346146 653.668701,75.597282 654.256958,73.432617 
	C654.539307,73.019569 654.924500,73.030312 654.948120,73.495819 
	C654.998535,86.979721 655.025391,99.998123 655.052307,113.016525 
	C655.029236,114.403557 655.006104,115.790581 654.973267,117.989853 
	C655.301086,120.574814 655.638611,122.347527 655.976196,124.120239 
z"/>
<path fill="#B24D3F" opacity="1.000000" stroke="none" 
	d="
M721.140076,91.878799 
	C721.140076,91.878799 721.025757,91.585655 721.080200,91.015854 
	C721.173462,89.896263 721.212158,89.346466 721.544922,88.967926 
	C722.798767,90.443512 724.166687,91.613396 724.648193,93.075226 
	C726.821289,99.673119 728.898499,106.311470 730.721497,113.013786 
	C733.956970,124.908966 735.732422,126.218132 747.848755,126.088058 
	C752.167419,126.041702 754.571228,124.342468 756.035889,120.341682 
	C756.782532,118.302101 758.556824,116.638748 759.892883,115.219536 
	C759.933350,116.465576 759.947632,117.297417 759.961853,118.129257 
	C756.682129,129.051956 756.682129,129.061310 745.464050,129.028244 
	C730.347900,128.983704 734.236877,130.018143 729.230835,117.222282 
	C726.385559,109.949463 724.588745,102.266449 722.091187,94.138855 
	C721.621826,92.965973 721.380920,92.422386 721.140076,91.878799 
z"/>
<path fill="#A9564F" opacity="1.000000" stroke="none" 
	d="
M639.879883,62.770058 
	C638.473145,62.843544 636.556030,63.026886 635.851501,62.189758 
	C630.194092,55.467854 622.616211,54.013290 614.479065,53.954159 
	C607.517456,53.903572 600.553650,53.861473 593.593689,53.981579 
	C585.989746,54.112797 585.382568,54.775711 584.540466,62.106113 
	C584.371704,63.575428 583.881653,65.007835 583.122681,66.751991 
	C582.527283,67.023247 582.348999,66.999763 582.170776,66.976288 
	C582.140198,63.490665 582.227356,59.998920 582.046509,56.521114 
	C581.860229,52.938534 583.625610,51.977657 586.891663,52.003590 
	C597.857300,52.090660 608.861145,51.445732 619.778503,52.167271 
	C627.588684,52.683449 635.127319,55.243187 639.879883,62.770058 
z"/>
<path fill="#A65D54" opacity="1.000000" stroke="none" 
	d="
M636.149170,120.141647 
	C638.057190,117.107491 640.804871,114.296547 641.684082,110.988922 
	C643.146729,105.486473 643.963684,99.673676 644.048889,93.976555 
	C644.174316,85.585152 643.418335,77.180565 643.032471,68.350800 
	C644.325867,70.630814 646.708496,73.332253 646.732056,76.054092 
	C646.824707,86.764664 646.915833,97.584244 645.452271,108.147873 
	C644.830200,112.637672 640.374634,116.596359 637.206787,120.778702 
	C636.559814,120.546227 636.358765,120.339783 636.149170,120.141647 
z"/>
<path fill="#423F40" opacity="1.000000" stroke="none" 
	d="
M400.639679,106.204086 
	C401.181885,109.672348 401.465088,113.385971 401.771698,117.406364 
	C400.969421,117.682220 399.893951,117.716904 399.607727,118.209839 
	C398.513306,120.094719 397.672760,122.127022 396.737427,124.104263 
	C398.344543,124.476776 399.948059,125.147812 401.559509,125.167381 
	C406.999023,125.233444 412.441345,125.068222 418.336182,124.979340 
	C417.116425,126.336075 415.579956,128.607758 413.741364,128.886490 
	C409.868195,129.473633 405.836700,129.016357 401.179749,128.815918 
	C399.689789,128.709671 398.890259,128.775177 398.090698,128.840668 
	C394.019348,129.103958 392.760345,127.333916 394.169098,123.519463 
	C396.266876,117.839508 398.312744,112.140404 400.639679,106.204086 
z"/>
<path fill="#403F3F" opacity="1.000000" stroke="none" 
	d="
M418.985962,63.010143 
	C414.971191,74.215195 411.019501,85.443771 406.856964,96.593651 
	C406.370514,97.896683 404.720520,98.765335 403.240540,99.887154 
	C408.129272,85.746544 413.387451,71.554138 418.980286,57.203499 
	C422.663574,58.772686 422.054138,60.691837 419.281738,62.818501 
	C418.974609,62.936119 418.985931,63.010139 418.985962,63.010143 
z"/>
<path fill="#3F3B3D" opacity="1.000000" stroke="none" 
	d="
M389.121704,125.043137 
	C389.085876,104.621292 389.072632,84.199364 388.993683,63.777687 
	C388.979309,60.054340 388.696991,56.332027 388.714203,52.384258 
	C389.607910,53.558216 390.911896,54.942764 390.946625,56.358471 
	C391.140991,64.275108 391.028534,72.199280 390.799713,80.960373 
	C390.402649,89.712326 390.226746,97.624763 390.050873,105.537209 
	C390.344299,111.709480 390.637756,117.881752 390.611877,124.529366 
	C389.902252,125.017517 389.511993,125.030327 389.121704,125.043137 
z"/>
<path fill="#423F40" opacity="1.000000" stroke="none" 
	d="
M297.075287,54.109928 
	C289.150085,54.405128 281.226044,54.738907 273.299103,54.975685 
	C270.316010,55.064793 267.317535,54.772648 264.341797,54.937527 
	C261.035675,55.120712 258.901672,56.398712 258.910645,60.403893 
	C258.919708,64.442055 258.123108,68.482033 257.396851,72.766357 
	C257.073273,68.965057 257.032349,64.918610 257.188049,60.121323 
	C257.296448,57.936790 257.208221,56.503105 257.120026,55.069416 
	C257.104462,54.600334 257.088898,54.131248 257.523102,53.313789 
	C260.295929,52.673698 262.618988,52.381989 264.942017,52.090275 
	C267.352173,52.055943 269.762360,52.021610 272.992554,52.206059 
	C281.545441,52.597179 289.278320,52.769520 297.026733,53.233902 
	C297.053284,53.720612 297.064270,53.915272 297.075287,54.109928 
z"/>
<path fill="#423F40" opacity="1.000000" stroke="none" 
	d="
M53.330837,126.094994 
	C64.555687,125.816559 76.020187,125.826355 87.802551,125.951569 
	C85.695518,126.927208 83.295296,128.438492 80.841316,128.531525 
	C71.693275,128.878387 62.362041,130.753906 53.330837,126.094994 
z"/>
<path fill="#AF685B" opacity="1.000000" stroke="none" 
	d="
M635.851562,120.314545 
	C636.358765,120.339783 636.559814,120.546227 636.900024,120.920670 
	C632.505493,123.386154 628.099792,127.291443 623.394958,127.693024 
	C610.129517,128.825287 596.741272,128.518265 583.481201,128.253723 
	C586.708435,127.519867 589.855957,127.310799 593.003418,127.101723 
	C602.120728,126.740189 611.308838,126.939590 620.328247,125.801826 
	C625.544006,125.143883 630.487793,122.330650 635.851562,120.314545 
z"/>
<path fill="#464445" opacity="1.000000" stroke="none" 
	d="
M488.999878,125.999924 
	C489.519379,118.884003 490.038910,111.768089 490.577240,104.394432 
	C491.983978,105.717453 493.099915,106.766998 494.525330,107.900818 
	C494.760559,114.479874 494.686310,120.974655 494.035736,127.608597 
	C491.972870,127.165138 490.486359,126.582527 488.999878,125.999924 
z"/>
<path fill="#A9564F" opacity="1.000000" stroke="none" 
	d="
M592.659119,126.918823 
	C589.855957,127.310799 586.708435,127.519867 583.221802,127.900803 
	C582.589050,123.181641 582.194763,118.293961 582.032776,113.398590 
	C581.895020,109.237091 582.024902,105.066727 582.251587,100.051697 
	C582.726440,93.041519 582.986084,86.879921 583.245789,80.718330 
	C583.774292,85.855003 584.663818,90.986259 584.740967,96.129707 
	C584.839661,102.716957 584.126648,109.312180 584.049255,115.907310 
	C583.944092,124.872528 584.060059,124.873886 592.659119,126.918823 
z"/>
<path fill="#A65D54" opacity="1.000000" stroke="none" 
	d="
M680.902527,99.207794 
	C684.007080,98.864151 687.111694,98.520508 691.076294,98.095016 
	C705.869995,98.179871 707.318787,96.381721 703.904541,82.676361 
	C702.800720,81.970024 701.867432,81.534172 700.472107,81.095924 
	C695.341187,81.148605 690.672363,81.203682 686.003479,81.258759 
	C683.241699,80.969093 680.479980,80.679428 677.632812,80.179375 
	C677.720337,79.963066 677.893188,79.957146 678.066101,79.951218 
	C687.141968,79.951218 696.217834,79.951218 705.654175,79.951218 
	C705.654175,86.666061 705.654175,92.884232 705.654175,99.496422 
	C697.783997,99.980301 689.812805,100.470390 681.399109,100.619186 
	C680.938538,99.921196 680.920532,99.564499 680.902527,99.207794 
z"/>
<path fill="#A96158" opacity="1.000000" stroke="none" 
	d="
M733.815674,52.588982 
	C724.603638,53.006454 715.146240,53.064716 705.310913,53.162529 
	C699.940186,53.175068 694.947449,53.148052 689.224365,53.110447 
	C688.317200,53.102982 688.140320,53.106110 687.963440,53.109238 
	C686.271912,53.110256 684.580444,53.111271 682.201416,53.106361 
	C681.337463,53.107140 681.161072,53.113853 680.984680,53.120564 
	C673.585327,53.357079 666.185974,53.593594 658.035767,53.740608 
	C656.185913,53.423138 655.086792,53.195160 653.987732,52.967186 
	C654.702698,52.657227 655.417847,52.076004 656.132629,52.076485 
	C681.945190,52.093929 707.757751,52.165604 733.815674,52.588982 
z"/>
<path fill="#B66D5F" opacity="1.000000" stroke="none" 
	d="
M680.533325,99.191528 
	C680.920532,99.564499 680.938538,99.921196 680.966797,100.547134 
	C679.971436,102.391449 678.965820,103.966537 677.416199,106.393646 
	C680.150879,106.670761 681.849243,106.974091 683.550598,106.991920 
	C689.999146,107.059525 696.449768,106.977600 702.897034,107.091621 
	C704.214966,107.114937 705.522217,107.743652 706.826477,108.509796 
	C698.333252,108.890411 689.847839,108.842880 681.362488,108.824326 
	C677.923340,108.816803 676.807373,106.644440 676.448425,103.706085 
	C676.104614,100.892563 677.033264,99.133698 680.533325,99.191528 
z"/>
<path fill="#434243" opacity="1.000000" stroke="none" 
	d="
M205.763977,54.621628 
	C198.405655,54.796082 191.053543,54.562656 183.336548,54.140591 
	C186.279144,50.841557 203.386780,51.038010 205.763977,54.621628 
z"/>
<path fill="#423F40" opacity="1.000000" stroke="none" 
	d="
M445.107727,59.603470 
	C444.481476,59.840675 443.456238,59.978470 443.228149,59.615437 
	C439.261963,53.302448 432.921844,55.301193 427.251678,54.916813 
	C425.770935,54.816433 424.306915,54.468651 422.424927,53.841629 
	C422.011902,53.042694 422.009247,52.636627 422.006561,52.230556 
	C427.420776,52.147350 432.840942,51.896805 438.245453,52.088173 
	C439.764801,52.141972 441.238220,53.493462 442.930298,54.721901 
	C443.389954,55.457001 443.651978,55.719925 443.914032,55.982845 
	C443.914032,55.982841 444.003937,56.361042 444.155884,56.759171 
	C444.491425,57.432175 444.689514,57.696209 444.902039,57.949398 
	C444.961273,58.389919 445.020538,58.830444 445.107727,59.603470 
z"/>
<path fill="#3F3B3D" opacity="1.000000" stroke="none" 
	d="
M264.397583,128.884415 
	C265.004913,127.936821 266.033905,126.263634 267.089325,126.246796 
	C276.515961,126.096413 285.947632,126.212654 295.376495,126.344009 
	C296.101379,126.354111 296.816345,127.077042 297.330872,127.744247 
	C288.103516,128.318314 279.081207,128.616760 270.058868,128.915222 
	C268.316406,128.919128 266.573944,128.923035 264.397583,128.884415 
z"/>
<path fill="#3F3B3D" opacity="1.000000" stroke="none" 
	d="
M109.101082,124.389893 
	C114.400406,124.669106 119.705566,125.290726 124.993797,126.032898 
	C127.199097,126.342407 129.368393,126.908516 131.778931,127.661613 
	C125.487068,128.268982 118.967552,128.774826 112.456245,128.685089 
	C111.319809,128.669418 110.217926,126.146095 109.101082,124.389893 
z"/>
<path fill="#3A3539" opacity="1.000000" stroke="none" 
	d="
M525.338257,128.248032 
	C526.248413,127.372650 527.497009,126.197929 528.745667,126.197746 
	C534.820129,126.196861 540.894653,126.510330 547.357178,126.800056 
	C546.687805,127.569099 545.634644,128.829315 544.572449,128.836975 
	C538.275024,128.882370 531.975464,128.637405 525.338257,128.248032 
z"/>
<path fill="#403F3F" opacity="1.000000" stroke="none" 
	d="
M524.206055,103.420181 
	C525.097412,103.704498 526.532715,104.390083 526.616821,105.213654 
	C527.213257,111.053741 527.532898,116.922096 527.940735,122.781441 
	C527.502380,122.873230 527.064026,122.965012 526.625671,123.056793 
	C525.950195,122.470039 525.274719,121.883286 524.376404,121.168259 
	C524.143921,115.321754 524.134277,109.603539 524.206055,103.420181 
z"/>
<path fill="#3A3539" opacity="1.000000" stroke="none" 
	d="
M388.900757,125.316628 
	C389.511993,125.030327 389.902252,125.017517 390.586243,124.995819 
	C389.969177,126.296593 389.121582,128.681519 388.137268,128.739349 
	C382.268799,129.084122 376.366241,128.970505 370.482300,128.784729 
	C369.701569,128.760071 368.961334,127.451340 368.175446,126.343124 
	C373.936676,126.159149 379.723816,126.423599 385.513855,126.529846 
	C386.563080,126.549088 387.624176,125.919937 388.900757,125.316628 
z"/>
<path fill="#3A3539" opacity="1.000000" stroke="none" 
	d="
M573.988281,125.978546 
	C574.305298,126.727921 574.622375,127.477287 574.991638,128.530212 
	C570.078125,128.891083 565.105469,128.808273 560.149170,129.054611 
	C556.804688,129.220856 555.300415,127.755020 555.074097,124.280350 
	C557.784546,124.643326 560.488525,125.328842 563.993591,126.018524 
	C567.859253,126.007980 570.923767,125.993256 573.988281,125.978546 
z"/>
<path fill="#434243" opacity="1.000000" stroke="none" 
	d="
M297.412628,54.223595 
	C297.064270,53.915272 297.053284,53.720612 297.186737,53.109955 
	C297.540497,52.521591 297.742371,52.340969 297.936890,52.152100 
	C302.869507,54.169769 307.802094,56.187443 312.886230,58.866325 
	C313.029266,60.014267 313.020782,60.500999 313.005463,60.994781 
	C312.998596,61.001835 312.983429,61.018982 312.983429,61.018982 
	C310.423462,59.928909 307.854156,58.860229 305.306213,57.742737 
	C302.776245,56.633148 300.267822,55.474430 297.412628,54.223595 
z"/>
<path fill="#434243" opacity="1.000000" stroke="none" 
	d="
M317.016785,78.601616 
	C316.174225,77.997284 314.932770,77.059189 314.767334,75.959244 
	C314.062134,71.271179 313.675232,66.535248 313.077820,61.417881 
	C312.983429,61.018982 312.998596,61.001835 313.306396,60.994972 
	C314.015686,60.984730 314.417206,60.981350 314.818695,60.977974 
	C318.605377,66.313721 319.036499,72.096657 317.016785,78.601616 
z"/>
<path fill="#3A3539" opacity="1.000000" stroke="none" 
	d="
M150.279205,127.272156 
	C157.130676,125.905769 164.184494,124.513596 170.983948,128.539566 
	C164.192062,128.418015 157.324890,128.017975 150.279205,127.272156 
z"/>
<path fill="#A96158" opacity="1.000000" stroke="none" 
	d="
M678.027466,79.516731 
	C677.893188,79.957146 677.720337,79.963066 677.288330,79.977905 
	C675.369080,77.223816 674.721680,74.652489 679.120605,72.833633 
	C681.936829,72.742111 684.003967,72.711441 686.071106,72.680771 
	C692.016418,72.728409 697.961731,72.776047 704.762390,72.820816 
	C706.743286,71.491013 708.269836,70.326241 708.889282,68.794617 
	C709.606018,67.022606 709.524536,64.927757 709.789612,62.973064 
	C709.789612,66.410187 709.789612,69.847313 709.789612,73.831924 
	C699.314209,73.831924 689.000854,73.831924 678.332092,73.831924 
	C678.195251,75.925392 678.091980,77.503822 678.027466,79.516731 
z"/>
<path fill="#3A3539" opacity="1.000000" stroke="none" 
	d="
M488.539612,126.000992 
	C490.486359,126.582527 491.972870,127.165138 493.752258,127.930664 
	C487.243408,128.246445 480.441711,128.379303 473.322876,128.238480 
	C478.030304,127.310570 483.054840,126.656319 488.539612,126.000992 
z"/>
<path fill="#58575A" opacity="1.000000" stroke="none" 
	d="
M182.644699,58.211620 
	C182.995712,58.137417 183.004456,58.325108 183.000183,59.254395 
	C182.986618,73.341896 182.986099,86.687805 182.985565,100.033714 
	C182.983429,100.779022 182.981308,101.524323 182.987762,102.642197 
	C182.684250,102.291428 182.099136,101.567574 182.100494,100.844826 
	C182.126907,86.720978 182.221649,72.597260 182.644699,58.211620 
z"/>
<path fill="#A96158" opacity="1.000000" stroke="none" 
	d="
M721.250854,88.796677 
	C721.212158,89.346466 721.173462,89.896263 721.086060,90.858643 
	C719.007690,84.789825 716.978027,78.308418 714.892822,71.423782 
	C715.007751,71.029701 715.178223,71.038841 715.668945,71.412827 
	C717.284302,73.928009 718.579407,76.078346 719.970459,78.531128 
	C720.461182,82.154610 720.856018,85.475647 721.250854,88.796677 
z"/>
<path fill="#A65D54" opacity="1.000000" stroke="none" 
	d="
M779.379517,59.873245 
	C778.666870,53.442120 778.318115,53.085361 771.832520,53.038277 
	C767.211670,53.004734 762.590393,53.022480 757.503296,53.010391 
	C764.831238,52.529095 772.625183,52.054737 781.349976,51.523724 
	C780.646912,55.006878 780.176514,57.337399 779.379517,59.873245 
z"/>
<path fill="#AF685B" opacity="1.000000" stroke="none" 
	d="
M583.238770,80.279846 
	C582.986084,86.879921 582.726440,93.041519 582.324951,99.586166 
	C582.137268,89.283936 582.091370,78.598648 582.108093,67.444824 
	C582.348999,66.999763 582.527283,67.023247 582.974487,67.086411 
	C583.239441,71.364517 583.235657,75.602936 583.238770,80.279846 
z"/>
<path fill="#B24D3F" opacity="1.000000" stroke="none" 
	d="
M709.849976,62.598686 
	C709.524536,64.927757 709.606018,67.022606 708.889282,68.794617 
	C708.269836,70.326241 706.743286,71.491013 705.219238,72.811584 
	C706.022400,68.706009 707.224182,64.606796 708.683105,60.235455 
	C708.940308,59.963329 709.021729,60.012871 709.177795,60.151497 
	C709.495850,60.437328 709.663635,60.577553 709.837219,60.710800 
	C709.861572,61.215302 709.885925,61.719803 709.849976,62.598686 
z"/>
<path fill="#4D4C4D" opacity="1.000000" stroke="none" 
	d="
M270.522522,128.944885 
	C279.081207,128.616760 288.103516,128.318314 297.603760,128.021240 
	C298.081665,128.022629 298.513519,128.004074 298.729370,127.994370 
	C295.415100,128.328644 291.890381,128.875381 288.353516,128.970688 
	C282.568573,129.126572 276.775726,128.988586 270.522522,128.944885 
z"/>
<path fill="#4D4C4D" opacity="1.000000" stroke="none" 
	d="
M297.474823,52.103523 
	C297.742371,52.340969 297.540497,52.521591 297.171204,52.817913 
	C289.278320,52.769520 281.545441,52.597179 273.441559,52.260139 
	C281.051300,52.081940 289.032013,52.068447 297.474823,52.103523 
z"/>
<path fill="#4A4A4A" opacity="1.000000" stroke="none" 
	d="
M390.334625,105.180496 
	C390.226746,97.624763 390.402649,89.712326 390.749817,81.430618 
	C390.820190,88.982162 390.719269,96.902977 390.334625,105.180496 
z"/>
<path fill="#58575A" opacity="1.000000" stroke="none" 
	d="
M173.947144,96.484879 
	C173.789246,90.586945 173.672546,84.225761 173.693848,77.488098 
	C173.884033,83.414955 173.936172,89.718292 173.947144,96.484879 
z"/>
<path fill="#A96158" opacity="1.000000" stroke="none" 
	d="
M654.924500,73.030312 
	C654.924500,73.030312 654.539307,73.019569 654.346680,73.015984 
	C654.129822,67.287392 654.105591,61.562382 654.294434,55.642883 
	C654.744507,56.011112 654.981567,56.573837 655.218628,57.136570 
	C655.198914,59.444164 655.179260,61.751747 655.114868,64.943146 
	C655.021606,68.228073 654.973083,70.629189 654.924500,73.030312 
z"/>
<path fill="#AF685B" opacity="1.000000" stroke="none" 
	d="
M760.278015,117.928925 
	C759.947632,117.297417 759.933350,116.465576 759.924805,115.051697 
	C759.930420,114.469666 759.996277,114.130791 760.170776,113.936966 
	C760.538330,113.454712 760.731323,113.166283 760.944153,112.571075 
	C760.995728,111.856056 761.027405,111.447800 761.059082,111.039536 
	C761.874023,109.789612 762.688965,108.539688 763.790283,107.145279 
	C762.915833,110.576744 761.755005,114.152672 760.278015,117.928925 
z"/>
<path fill="#B66D5F" opacity="1.000000" stroke="none" 
	d="
M709.238098,119.028000 
	C708.314087,116.442787 707.681030,113.611069 707.068604,110.364838 
	C707.721619,110.981522 708.657471,111.941978 708.918152,113.059860 
	C709.350281,114.913788 709.348145,116.868980 709.238098,119.028000 
z"/>
<path fill="#AF685B" opacity="1.000000" stroke="none" 
	d="
M764.345703,106.867096 
	C764.837341,104.168358 765.644226,101.270607 766.753906,98.190475 
	C766.258118,100.894753 765.459534,103.781418 764.345703,106.867096 
z"/>
<path fill="#A65D54" opacity="1.000000" stroke="none" 
	d="
M776.320618,69.922134 
	C776.859619,66.921829 777.721985,63.716770 778.831421,60.247108 
	C778.267029,63.227459 777.455566,66.472420 776.320618,69.922134 
z"/>
<path fill="#3F3B3D" opacity="1.000000" stroke="none" 
	d="
M300.369934,127.902496 
	C302.454132,127.182793 304.936462,126.535294 307.743225,125.972046 
	C305.634430,126.695763 303.201263,127.335236 300.369934,127.902496 
z"/>
<path fill="#AF685B" opacity="1.000000" stroke="none" 
	d="
M767.359924,97.849281 
	C767.910522,95.196083 768.776855,92.348503 769.866699,89.259872 
	C769.285339,91.897507 768.480530,94.776207 767.359924,97.849281 
z"/>
<path fill="#B24D3F" opacity="1.000000" stroke="none" 
	d="
M655.469727,56.967789 
	C654.981567,56.573837 654.744507,56.011112 654.369629,55.173767 
	C654.231689,54.899143 654.089233,54.536961 654.068115,54.055489 
	C654.021545,53.384544 653.996033,53.195076 653.970459,53.005604 
	C653.970459,53.005604 653.958862,52.975132 653.973267,52.971157 
	C655.086792,53.195160 656.185913,53.423138 657.601013,53.750614 
	C657.184998,54.833080 656.452942,55.816048 655.469727,56.967789 
z"/>
<path fill="#A96158" opacity="1.000000" stroke="none" 
	d="
M735.901001,59.673553 
	C735.218689,57.948410 734.610352,55.824196 734.027893,53.317566 
	C734.694214,55.048267 735.334656,57.161377 735.901001,59.673553 
z"/>
<path fill="#4D4C4D" opacity="1.000000" stroke="none" 
	d="
M264.525513,52.060051 
	C262.618988,52.381989 260.295929,52.673698 257.564148,52.963799 
	C259.473267,52.651402 261.791168,52.340614 264.525513,52.060051 
z"/>
<path fill="#403F3F" opacity="1.000000" stroke="none" 
	d="
M421.672150,52.211895 
	C422.009247,52.636627 422.011902,53.042694 422.018982,53.754395 
	C421.303223,54.364105 420.583099,54.668182 419.569458,55.010284 
	C419.963257,54.096619 420.650482,53.144924 421.672150,52.211895 
z"/>
<path fill="#4A4A4A" opacity="1.000000" stroke="none" 
	d="
M257.070007,55.473301 
	C257.208221,56.503105 257.296448,57.936790 257.235321,59.656376 
	C257.063995,58.587242 257.041992,57.232216 257.070007,55.473301 
z"/>
<path fill="#4A494A" opacity="1.000000" stroke="none" 
	d="
M398.444275,128.888184 
	C398.890259,128.775177 399.689789,128.709671 400.711060,128.765686 
	C400.221100,128.903366 399.509491,128.919525 398.444275,128.888184 
z"/>
<path fill="#4A4A4A" opacity="1.000000" stroke="none" 
	d="
M314.759460,60.695930 
	C314.417206,60.981350 314.015686,60.984730 313.313263,60.987919 
	C313.020782,60.500999 313.029266,60.014267 313.048767,59.161354 
	C313.606598,59.334743 314.153381,59.874313 314.759460,60.695930 
z"/>
<path fill="#A65D54" opacity="1.000000" stroke="none" 
	d="
M755.682007,56.074661 
	C755.808960,56.754368 755.627319,57.621304 755.295959,58.789749 
	C755.221985,58.148136 755.297668,57.205013 755.682007,56.074661 
z"/>
<path fill="#A65D54" opacity="1.000000" stroke="none" 
	d="
M754.714478,59.998222 
	C754.808899,60.391350 754.622437,60.955273 754.292175,61.780907 
	C754.243408,61.418091 754.338501,60.793552 754.714478,59.998222 
z"/>
<path fill="#A65D54" opacity="1.000000" stroke="none" 
	d="
M756.714417,53.166245 
	C756.828735,53.557331 756.662109,54.069592 756.357666,54.817650 
	C756.291016,54.464771 756.362244,53.876095 756.714417,53.166245 
z"/>
<path fill="#4A494A" opacity="1.000000" stroke="none" 
	d="
M443.874390,55.749893 
	C443.651978,55.719925 443.389954,55.457001 443.135651,55.044792 
	C443.450165,55.017708 443.680603,55.224846 443.874390,55.749893 
z"/>
<path fill="#A96158" opacity="1.000000" stroke="none" 
	d="
M721.090210,92.208015 
	C721.380920,92.422386 721.621826,92.965973 721.928589,93.799469 
	C721.676453,93.571983 721.358459,93.054604 721.090210,92.208015 
z"/>
<path fill="#4A494A" opacity="1.000000" stroke="none" 
	d="
M444.835144,57.701134 
	C444.689514,57.696209 444.491425,57.432175 444.166290,56.953270 
	C444.272583,56.983780 444.520386,57.218323 444.835144,57.701134 
z"/>
<path fill="#A96158" opacity="1.000000" stroke="none" 
	d="
M653.733154,53.074715 
	C653.996033,53.195076 654.021545,53.384544 654.051086,53.861633 
	C653.868713,53.814106 653.682251,53.478966 653.733154,53.074715 
z"/>
<path fill="#CD4C34" opacity="1.000000" stroke="none" 
	d="
M709.883911,60.582047 
	C709.663635,60.577553 709.495850,60.437328 709.218445,60.176380 
	C709.103027,60.062634 709.473877,60.123562 709.659058,60.158447 
	C709.844299,60.193333 709.930603,60.453293 709.883911,60.582047 
z"/>
<path fill="#464445" opacity="1.000000" stroke="none" 
	d="
M490.494690,101.500343 
	C490.514008,101.494240 490.475372,101.506447 490.494690,101.500343 
z"/>
<path fill="#000000" opacity="1.000000" stroke="none" 
	d="
M280.071106,107.841347 
	C279.804779,97.009834 280.290253,96.592461 291.047272,98.662682 
	C292.486664,98.939690 293.885956,99.425362 295.659485,100.325165 
	C297.131989,105.110031 295.626465,107.624199 291.438110,107.862579 
	C287.661743,108.077515 283.861053,107.865219 280.071106,107.841347 
z"/>
<path fill="#000000" opacity="1.000000" stroke="none" 
	d="
M288.965729,73.860077 
	C289.429840,73.896194 289.893921,73.932304 290.929688,73.953133 
	C291.501373,73.937843 291.951721,73.887718 291.951721,73.887718 
	C292.894958,75.611298 293.838196,77.334877 294.781433,79.058456 
	C293.087219,79.730019 291.401917,80.425812 289.692719,81.056824 
	C289.242432,81.223068 288.714020,81.165390 288.228546,81.250633 
	C279.973206,82.700142 279.401215,82.153114 280.934448,73.707458 
	C283.988495,73.753304 286.477112,73.806686 288.965729,73.860077 
z"/>
<path fill="#434243" opacity="1.000000" stroke="none" 
	d="
M280.165955,108.208878 
	C283.861053,107.865219 287.661743,108.077515 291.438110,107.862579 
	C295.626465,107.624199 297.131989,105.110031 295.977112,100.478729 
	C299.545532,99.185593 300.725677,101.847260 299.337067,103.864456 
	C297.537537,106.478584 294.518127,108.886826 291.524689,109.881668 
	C287.937927,111.073700 283.503418,113.082291 280.165955,108.208878 
z"/>
<path fill="#58575A" opacity="1.000000" stroke="none" 
	d="
M288.753693,73.580276 
	C286.477112,73.806686 283.988495,73.753304 281.200745,73.423447 
	C283.448273,73.198151 285.994965,73.249313 288.753693,73.580276 
z"/>
<path fill="#3F3B3D" opacity="1.000000" stroke="none" 
	d="
M262.503052,125.507233 
	C262.498535,125.489723 262.507568,125.524742 262.503052,125.507233 
z"/>
<path fill="#434243" opacity="1.000000" stroke="none" 
	d="
M289.500793,112.504440 
	C289.495392,112.486572 289.506195,112.522301 289.500793,112.504440 
z"/>
<path fill="#58575A" opacity="1.000000" stroke="none" 
	d="
M291.839752,73.865921 
	C291.951721,73.887718 291.501373,73.937843 291.276794,73.908005 
	C291.276489,73.821266 291.501678,73.809921 291.839752,73.865921 
z"/>
<path fill="#3F3B3D" opacity="1.000000" stroke="none" 
	d="
M183.167267,99.658936 
	C182.986099,86.687805 182.986618,73.341896 183.012573,59.535965 
	C183.358841,61.687866 183.972412,64.302383 183.949371,66.911278 
	C183.854095,77.703163 183.566147,88.493355 183.167267,99.658936 
z"/>
<path fill="#AF594F" opacity="1.000000" stroke="none" 
	d="
M622.105286,76.863861 
	C622.850342,78.064011 624.216370,79.253540 624.237122,80.466064 
	C624.350525,87.099541 624.301575,93.746780 623.980530,100.373413 
	C623.689453,106.381424 620.817017,108.912704 614.827637,109.099030 
	C613.833740,109.129944 612.837708,109.192047 611.849854,109.303253 
	C605.600098,110.006836 603.509094,107.446793 605.543823,101.348709 
	C606.187927,103.019379 606.526917,104.529396 607.132202,106.373749 
	C609.217468,106.812279 611.036743,107.010506 612.855347,107.004227 
	C620.291321,106.978577 621.934448,105.327744 621.992004,98.041809 
	C622.036682,92.384613 622.117554,86.727715 622.298950,80.787712 
	C622.312195,79.291115 622.208740,78.077484 622.105286,76.863861 
z"/>
<path fill="#AF594F" opacity="1.000000" stroke="none" 
	d="
M605.783203,96.251228 
	C602.752197,89.363113 603.658936,82.365395 605.528442,75.571152 
	C605.831421,82.611961 605.807312,89.431595 605.783203,96.251228 
z"/>
<path fill="#A96158" opacity="1.000000" stroke="none" 
	d="
M605.784912,96.622253 
	C605.807312,89.431595 605.831421,82.611961 605.804199,75.309143 
	C605.752869,74.825958 605.833435,74.814651 606.102844,74.876762 
	C606.372253,74.938873 606.844360,74.997658 606.900818,75.462784 
	C606.926819,85.965080 606.896423,96.002251 606.865967,106.039413 
	C606.526917,104.529396 606.187927,103.019379 605.783325,101.110443 
	C605.740723,99.472099 605.763733,98.232689 605.784912,96.622253 
z"/>
<path fill="#B66D5F" opacity="1.000000" stroke="none" 
	d="
M606.844360,74.997658 
	C606.844360,74.997658 606.372253,74.938873 606.136841,74.899094 
	C608.570801,70.658043 615.200500,70.737808 620.038879,75.447601 
	C620.105835,75.866600 619.953369,76.046425 619.602356,75.876984 
	C615.115662,75.470917 610.980042,75.234283 606.844360,74.997658 
z"/>
<path fill="#B66D5F" opacity="1.000000" stroke="none" 
	d="
M621.906372,76.670685 
	C622.208740,78.077484 622.312195,79.291115 622.217590,80.441330 
	C621.330811,78.934097 620.642090,77.490265 619.953369,76.046432 
	C619.953369,76.046425 620.105835,75.866600 620.182739,75.773384 
	C620.742249,75.945946 621.224915,76.211723 621.906372,76.670685 
z"/>
<path fill="#000000" opacity="1.000000" stroke="none" 
	d="
M432.585205,89.113182 
	C433.124603,90.483849 433.632385,91.544296 433.817657,92.658386 
	C434.126007,94.512344 434.922241,97.681366 434.282562,98.028389 
	C432.539886,98.973763 430.153534,98.732742 426.932861,99.078918 
	C428.487152,94.299263 429.653046,90.714012 431.109802,86.234306 
	C431.867188,87.746254 432.137909,88.286667 432.585205,89.113182 
z"/>
<path fill="#CC5038" opacity="1.000000" stroke="none" 
	d="
M704.075073,82.946869 
	C707.318787,96.381721 705.869995,98.179871 691.473511,97.990852 
	C693.800537,91.283882 692.656372,85.780113 686.091919,81.567841 
	C690.672363,81.203682 695.341187,81.148605 700.687744,81.316223 
	C702.268677,82.008232 703.171875,82.477547 704.075073,82.946869 
z"/>
<path fill="#B24D3F" opacity="1.000000" stroke="none" 
	d="
M654.948120,73.495819 
	C654.973083,70.629189 655.021606,68.228073 655.107727,65.376358 
	C655.590759,71.308952 656.291138,77.687210 656.414124,84.076599 
	C656.554077,91.341698 656.214722,98.617790 656.003479,105.886772 
	C655.941528,108.017021 655.606201,110.139320 655.224243,112.640900 
	C655.025391,99.998123 654.998535,86.979721 654.948120,73.495819 
z"/>
<path fill="#B24D3F" opacity="1.000000" stroke="none" 
	d="
M685.838135,72.445663 
	C684.003967,72.711441 681.936829,72.742111 679.433594,72.713058 
	C681.200012,72.505753 683.402649,72.358154 685.838135,72.445663 
z"/>
<path fill="#B24D3F" opacity="1.000000" stroke="none" 
	d="
M655.984253,123.715813 
	C655.638611,122.347527 655.301086,120.574814 654.978210,118.406021 
	C655.326050,119.777092 655.659180,121.544235 655.984253,123.715813 
z"/>
<path fill="#B24D3F" opacity="1.000000" stroke="none" 
	d="
M688.092896,53.155102 
	C688.140320,53.106110 688.317200,53.102982 688.759155,53.108166 
	C689.024170,53.116474 688.629272,53.221485 688.629272,53.221485 
	C688.629272,53.221485 688.222290,53.200970 688.092896,53.155102 
z"/>
<path fill="#B24D3F" opacity="1.000000" stroke="none" 
	d="
M681.114014,53.163986 
	C681.161072,53.113853 681.337463,53.107140 681.778687,53.103981 
	C682.043518,53.107533 681.650635,53.219933 681.650635,53.219933 
	C681.650635,53.219933 681.243347,53.207413 681.114014,53.163986 
z"/>
<path fill="#CF4B32" opacity="1.000000" stroke="none" 
	d="
M760.943726,110.725967 
	C761.027405,111.447800 760.995728,111.856056 760.768127,112.763626 
	C760.380249,113.552231 760.188293,113.841507 759.996277,114.130783 
	C759.996277,114.130791 759.930420,114.469666 759.898560,114.637497 
	C758.556824,116.638748 756.782532,118.302101 756.035889,120.341682 
	C754.571228,124.342468 752.167419,126.041702 747.848755,126.088058 
	C735.732422,126.218132 733.956970,124.908966 730.721497,113.013786 
	C728.898499,106.311470 726.821289,99.673119 724.648193,93.075226 
	C724.166687,91.613396 722.798767,90.443512 721.544983,88.967926 
	C720.856018,85.475647 720.461182,82.154610 719.878296,78.196907 
	C717.411682,72.393661 715.189087,67.221657 718.995605,60.865219 
	C716.785339,60.865219 715.429321,60.865219 714.073303,60.865219 
	C713.500488,56.535606 715.422546,54.961422 719.736816,54.899475 
	C732.092712,54.722065 732.618225,54.936958 736.028442,67.137726 
	C738.000671,74.193932 739.632568,81.348831 741.758789,88.355782 
	C742.245911,89.961113 744.137024,91.140427 745.381958,92.515808 
	C746.616089,91.196793 748.471985,90.081619 748.982239,88.525253 
	C752.033325,79.220467 754.943054,69.860382 757.537598,60.419205 
	C758.599426,56.555553 760.470703,54.706558 764.508423,54.947468 
	C767.330383,55.115841 770.172180,54.919216 773.001465,55.005489 
	C776.078674,55.099327 777.060486,56.470135 776.027954,59.582790 
	C771.491150,73.258835 767.025391,86.959724 762.707214,100.706070 
	C761.725891,103.829987 761.436340,107.171204 760.943726,110.725967 
z"/>
<path fill="#BD442E" opacity="1.000000" stroke="none" 
	d="
M714.058472,61.291855 
	C715.429321,60.865219 716.785339,60.865219 718.995605,60.865219 
	C715.189087,67.221657 717.411682,72.393661 719.782410,77.894455 
	C718.579407,76.078346 717.284302,73.928009 715.924927,71.419998 
	C715.255005,67.947716 714.649292,64.833107 714.058472,61.291855 
z"/>
<path fill="#4D4C4D" opacity="1.000000" stroke="none" 
	d="
M573.981567,125.554405 
	C570.923767,125.993256 567.859253,126.007980 564.396667,126.012375 
	C562.931213,124.774124 561.179993,123.666138 560.939209,122.293243 
	C560.441711,119.456825 559.748718,115.850334 561.057495,113.768692 
	C562.018555,112.240143 566.110718,112.056496 568.664551,112.384895 
	C570.220032,112.584915 572.201721,114.660690 572.753906,116.308693 
	C573.680725,119.075073 573.619995,122.172279 573.981567,125.554405 
z"/>
<path fill="#4A494A" opacity="1.000000" stroke="none" 
	d="
M418.992767,63.004898 
	C418.985931,63.010139 418.974609,62.936119 418.992310,62.961025 
	C419.010010,62.985931 418.999603,62.999653 418.992767,63.004898 
z"/>
<path fill="#B24D3F" opacity="1.000000" stroke="none" 
	d="
M703.904541,82.676369 
	C703.171875,82.477547 702.268677,82.008232 701.149780,81.318619 
	C701.867432,81.534172 702.800720,81.970024 703.904541,82.676369 
z"/>
<path fill="#B24D3F" opacity="1.000000" stroke="none" 
	d="
M760.170776,113.936966 
	C760.188293,113.841507 760.380249,113.552231 760.748291,113.070404 
	C760.731323,113.166283 760.538330,113.454712 760.170776,113.936966 
z"/>
<path fill="#000000" opacity="1.000000" stroke="none" 
	d="
M619.602356,75.876984 
	C620.642090,77.490265 621.330811,78.934097 622.100952,80.724304 
	C622.117554,86.727715 622.036682,92.384613 621.992004,98.041809 
	C621.934448,105.327744 620.291321,106.978577 612.855347,107.004227 
	C611.036743,107.010506 609.217468,106.812279 607.132202,106.373749 
	C606.896423,96.002251 606.926819,85.965080 606.900818,75.462784 
	C610.980042,75.234283 615.115662,75.470917 619.602356,75.876984 
z"/>
</svg>